<svg id="Layer_1" data-name="Layer 1" xmlns="http://www.w3.org/2000/svg" width="65" height="50" viewBox="0 0 65 50"><defs><style>.cls-1{fill:#ccc;}</style></defs><path class="cls-1" d="M4.9,11.2h55a4.71,4.71,0,0,0,4.56-3.1A4.61,4.61,0,0,0,60.1,2H5.1A4.71,4.71,0,0,0,.54,5.1,4.61,4.61,0,0,0,4.9,11.2Zm55.2,9.2H5.1A4.71,4.71,0,0,0,.54,23.5,4.61,4.61,0,0,0,4.9,29.6h55a4.71,4.71,0,0,0,4.56-3.1A4.61,4.61,0,0,0,60.1,20.4Zm0,18.4H5.1A4.71,4.71,0,0,0,.54,41.9,4.61,4.61,0,0,0,4.9,48h55a4.71,4.71,0,0,0,4.56-3.1A4.61,4.61,0,0,0,60.1,38.8Z"/></svg>